<mxfile host="app.diagrams.net" modified="2023-05-26T07:18:01.803Z" agent="Mozilla/5.0 (Macintosh; Intel Mac OS X 10_15_7) AppleWebKit/537.36 (KHTML, like Gecko) Chrome/113.0.0.0 Safari/537.36" version="21.3.4" etag="vg9GkElo_l_O1IzLTWvV" type="github">
  <diagram name="第 1 页" id="4Ab8lqRVW2OiMOKWnX5B">
    <mxGraphModel>
      <root>
        <mxCell id="0" />
        <mxCell id="1" parent="0" />
      </root>
    </mxGraphModel>
  </diagram>
</mxfile>
